<svg width="40" height="40" viewBox="0 0 40 40" fill="none" xmlns="http://www.w3.org/2000/svg">
<path d="M14.1666 6.90112C10.1666 6.90112 6.90832 10.16 6.90832 14.1606C6.90832 18.1612 10.1666 21.4201 14.1666 21.4201C18.1666 21.4201 21.425 18.1612 21.425 14.1606C21.425 10.16 18.175 6.90112 14.1666 6.90112ZM14.1666 19.7531C11.0833 19.7531 8.57498 17.2444 8.57498 14.1606C8.57498 11.0768 11.0833 8.56805 14.1666 8.56805C17.25 8.56805 19.7583 11.0768 19.7583 14.1606C19.7583 17.2444 17.25 19.7531 14.1666 19.7531Z" fill="#2A2D3C"/>
<path d="M14.1667 16.4276C12.9167 16.4276 11.9083 15.4108 11.9083 14.1689C11.9083 13.7105 11.5333 13.3354 11.075 13.3354C10.6166 13.3354 10.2416 13.7105 10.2416 14.1689C10.2416 16.3359 12 18.0945 14.1667 18.0945C14.625 18.0945 15 17.7195 15 17.2611C15 16.7943 14.625 16.4276 14.1667 16.4276Z" fill="#2A2D3C"/>
<path d="M14.1667 10.2349C13.7083 10.2349 13.3333 10.61 13.3333 11.0684C13.3333 11.5268 13.7083 11.9019 14.1667 11.9019C15.4167 11.9019 16.425 12.9187 16.425 14.1605C16.425 14.6189 16.8 14.994 17.2583 14.994C17.7167 14.994 18.0917 14.6189 18.0917 14.1605C18.0917 11.9935 16.3333 10.2349 14.1667 10.2349Z" fill="#2A2D3C"/>
<path d="M39.7501 35.0305C29.8501 25.1289 30.3251 25.604 30.2584 25.554C29.9251 25.2873 29.4417 25.3123 29.1417 25.6123L27.9667 26.7875L24.7667 23.587L25.5251 22.8286C25.8501 22.5035 25.8501 21.9784 25.5251 21.6534L23.1667 19.2863C23.6001 18.5362 23.9251 17.7361 24.1584 16.8943H27.5001C27.9584 16.8943 28.3334 16.5192 28.3334 16.0608V12.2519C28.3334 11.7935 27.9584 11.4185 27.5001 11.4185H24.1584C23.9334 10.585 23.6001 9.78486 23.1667 9.02641L25.5334 6.65937C25.8584 6.33432 25.8584 5.80924 25.5334 5.48419L22.8334 2.80044C22.5084 2.47539 21.9834 2.47539 21.6584 2.80044L19.2917 5.16747C18.5417 4.73407 17.7417 4.40069 16.9001 4.17565V0.833463C16.9001 0.375058 16.5251 0 16.0667 0H12.2584C11.8001 0 11.4251 0.375058 11.4251 0.833463V4.17565C10.5917 4.40069 9.79173 4.73407 9.03339 5.16747L6.68339 2.80044C6.35839 2.47539 5.83339 2.47539 5.50839 2.80044L2.80839 5.49252C2.48339 5.81758 2.48339 6.34266 2.80839 6.66771L5.17506 9.03474C4.74173 9.78486 4.40839 10.585 4.18339 11.4268H0.841726C0.383392 11.4268 0.00839233 11.8018 0.00839233 12.2602V16.0692C0.00839233 16.5276 0.383392 16.9026 0.841726 16.9026H4.18339C4.40839 17.7361 4.74173 18.5362 5.17506 19.2947L2.80839 21.6617C2.48339 21.9868 2.48339 22.5118 2.80839 22.8369L5.50006 25.5207C5.82506 25.8457 6.35006 25.8457 6.67506 25.5207L9.04173 23.1536C9.79173 23.587 10.5917 23.9121 11.4334 24.1454V27.496C11.4334 27.9544 11.8084 28.3294 12.2667 28.3294H16.0751C16.5334 28.3294 16.9084 27.9544 16.9084 27.496V24.1538C17.7417 23.9287 18.5417 23.5954 19.3001 23.162L21.6667 25.529C21.9917 25.854 22.5167 25.854 22.8417 25.529L23.6001 24.7705L26.8001 27.971C25.6084 29.1629 25.6167 29.1546 25.5667 29.2129C25.3251 29.5046 25.3251 29.9047 25.5167 30.2047C25.5667 30.3047 25.2584 29.963 35.0417 39.7562C35.3667 40.0813 35.8917 40.0813 36.2167 39.7562L39.7501 36.2223C40.0751 35.8889 40.0751 35.3555 39.7501 35.0305ZM22.2501 23.7537L20.0084 21.5117C19.7251 21.2283 19.2917 21.1866 18.9584 21.4033C18.0251 22.0201 17.0001 22.4452 15.9084 22.6702C15.5167 22.7452 15.2417 23.0869 15.2417 23.487V26.6542H13.1001V23.487C13.1001 23.0869 12.8251 22.7452 12.4334 22.6702C11.3417 22.4452 10.3167 22.0201 9.38339 21.4033C9.05006 21.1866 8.61673 21.2283 8.33339 21.5117L6.09173 23.7537L4.57506 22.2451L6.81673 20.0031C7.10006 19.7197 7.14173 19.2863 6.92506 18.953C6.30839 18.0195 5.88339 16.9943 5.65839 15.9025C5.58339 15.5108 5.24173 15.2357 4.84173 15.2357H1.67506V13.0937H4.84173C5.24173 13.0937 5.57506 12.8187 5.65839 12.4269C5.88339 11.3351 6.30839 10.3099 6.92506 9.37647C7.14173 9.04308 7.10006 8.60968 6.81673 8.3263L4.57506 6.08428L6.09173 4.56738L8.33339 6.8094C8.61673 7.09277 9.05006 7.13445 9.38339 6.91775C10.3167 6.30098 11.3417 5.87592 12.4334 5.65088C12.8251 5.57587 13.1001 5.23415 13.1001 4.83409V1.66693H15.2417V4.83409C15.2417 5.23415 15.5167 5.56754 15.9084 5.65088C17.0001 5.87592 18.0251 6.30098 18.9584 6.91775C19.2917 7.13445 19.7251 7.09277 20.0084 6.8094L22.2501 4.56738L23.7667 6.08428L21.5251 8.3263C21.2417 8.60968 21.2001 9.04308 21.4167 9.37647C22.0334 10.3099 22.4584 11.3351 22.6834 12.4269C22.7584 12.8187 23.1001 13.0937 23.5001 13.0937H26.6667V15.2357H23.5001C23.1001 15.2357 22.7584 15.5108 22.6834 15.9025C22.4584 16.9943 22.0334 18.0195 21.4167 18.953C21.2001 19.2863 21.2417 19.7197 21.5251 20.0031L23.7667 22.2451L22.2501 23.7537ZM29.7334 27.3793L32.0917 29.738L29.7334 32.0967L27.3751 29.738L29.7334 27.3793ZM35.6251 37.9809L30.9167 33.2635L33.2751 30.9048L37.9834 35.6222L35.6251 37.9809Z" fill="#2A2D3C"/>
<path d="M31.6667 1.66693H39.1667C39.625 1.66693 40 1.29187 40 0.833463C40 0.375058 39.625 0 39.1667 0H31.6667C31.2083 0 30.8333 0.375058 30.8333 0.833463C30.8333 1.29187 31.2 1.66693 31.6667 1.66693Z" fill="#2A2D3C"/>
<path d="M31.6667 5.83429H39.1667C39.625 5.83429 40 5.45923 40 5.00082C40 4.54242 39.625 4.16736 39.1667 4.16736H31.6667C31.2083 4.16736 30.8333 4.54242 30.8333 5.00082C30.8333 5.45923 31.2 5.83429 31.6667 5.83429Z" fill="#2A2D3C"/>
<path d="M39.1584 8.32629H35.825C35.3667 8.32629 34.9917 8.70135 34.9917 9.15976C34.9917 9.61816 35.3667 9.99322 35.825 9.99322H39.1584C39.6167 9.99322 39.9917 9.61816 39.9917 9.15976C39.9917 8.70135 39.6167 8.32629 39.1584 8.32629Z" fill="#2A2D3C"/>
<path d="M8.33333 38.3226H0.833333C0.375 38.3226 0 38.6977 0 39.1561C0 39.6145 0.375 39.9896 0.833333 39.9896H8.33333C8.79167 39.9896 9.16667 39.6145 9.16667 39.1561C9.16667 38.6977 8.8 38.3226 8.33333 38.3226Z" fill="#2A2D3C"/>
<path d="M8.33333 34.1553H0.833333C0.375 34.1553 0 34.5304 0 34.9888C0 35.4472 0.375 35.8223 0.833333 35.8223H8.33333C8.79167 35.8223 9.16667 35.4472 9.16667 34.9888C9.16667 34.5304 8.8 34.1553 8.33333 34.1553Z" fill="#2A2D3C"/>
<path d="M8.33333 29.9963H5C4.54167 29.9963 4.16667 30.3714 4.16667 30.8298C4.16667 31.2882 4.54167 31.6633 5 31.6633H8.33333C8.79167 31.6633 9.16667 31.2882 9.16667 30.8298C9.16667 30.3631 8.8 29.9963 8.33333 29.9963Z" fill="#2A2D3C"/>
</svg>
