<svg width="40" height="40" viewBox="0 0 40 40" fill="none" xmlns="http://www.w3.org/2000/svg">
<path fill-rule="evenodd" clip-rule="evenodd" d="M20 0C8.95431 0 0 8.95431 0 20C0 31.0457 8.95431 40 20 40C31.0457 40 40 31.0457 40 20C40 8.95431 31.0457 0 20 0ZM23.7027 18.2948C23.9999 18.6202 24.4819 18.6202 24.7791 18.2948C25.0764 17.9693 25.0764 17.4417 24.7791 17.1163L20.2121 12.1163C19.9148 11.7908 19.4329 11.7908 19.1356 12.1163L14.5686 17.1163C14.2714 17.4417 14.2714 17.9693 14.5686 18.2948C14.8659 18.6202 15.3478 18.6202 15.6451 18.2948L18.6952 14.9555V26.6341C18.6952 27.0944 19.036 27.4674 19.4564 27.4674C19.8768 27.4674 20.2176 27.0944 20.2176 26.6341V14.4793L23.7027 18.2948Z" fill="#423CE8"/>
</svg>
