<svg width="40" height="40" viewBox="0 0 40 40" fill="none" xmlns="http://www.w3.org/2000/svg">
<path d="M2.35292 37.6467C1.05344 36.3473 1.05344 34.2404 2.35292 32.9409L32.9409 2.3529C34.2404 1.05342 36.3473 1.05342 37.6468 2.3529C38.9463 3.65239 38.9462 5.75927 37.6468 7.05875L7.05877 37.6467C5.75928 38.9462 3.65241 38.9462 2.35292 37.6467Z" fill="#2A2D3C"/>
<path d="M37.6471 37.6471C36.3476 38.9466 34.2407 38.9466 32.9412 37.6471L2.35321 7.05908C1.05372 5.75959 1.05372 3.65272 2.35321 2.35323V2.35323C3.65269 1.05375 5.75957 1.05375 7.05906 2.35324L37.6471 32.9412C38.9465 34.2407 38.9465 36.3476 37.6471 37.6471V37.6471Z" fill="#2A2D3C"/>
</svg>
