<svg width="40" height="40" viewBox="0 0 40 40" fill="none" xmlns="http://www.w3.org/2000/svg">
<path d="M20 0C8.9725 0 0 8.97169 0 20C0 31.0283 8.9725 40 20 40C31.0275 40 40 31.0283 40 20C40 8.97169 31.0275 0 20 0ZM20 38.2407C10.35 38.2407 1.68675 29.6468 1.68675 20C1.68675 10.3532 10.35 1.57319 20 1.57319C29.6488 1.57319 38.4337 10.3532 38.4337 20C38.4337 29.6468 29.6488 38.2407 20 38.2407Z" fill="#2A2D3C"/>
<path d="M19.9998 4.9361C11.6936 4.9361 4.9361 11.6934 4.9361 20C4.9361 28.3066 11.6936 35.0639 19.9998 35.0639C28.3061 35.0639 35.0623 28.3066 35.0623 20C35.0623 11.6934 28.3061 4.9361 19.9998 4.9361ZM20.1203 33.4001C13.1928 33.4001 6.62637 26.9251 6.62637 20C6.62637 13.0761 13.0723 6.41376 19.9998 6.41376C26.9273 6.41376 33.6143 13.0761 33.6143 20C33.6143 26.9251 27.0478 33.4001 20.1203 33.4001Z" fill="#2A2D3C"/>
<path d="M28.0139 19.1727H11.9864V20.6936H28.0139V19.1727Z" fill="#2A2D3C"/>
</svg>
