<svg width="600" height="600" viewBox="0 0 600 600" fill="none" xmlns="http://www.w3.org/2000/svg">
<g clip-path="url(#clip0)">
<path opacity="0.17" d="M244.081 135.914C201.011 136.605 156.716 126.716 115.207 138.916C69.3551 152.17 33.4366 192.004 20.7936 238.079C8.15066 284.155 17.6445 334.785 42.6323 375.32C73.5246 426.311 130.093 462.718 189.397 461.902C223.107 461.462 256.036 449.493 286.392 434.783C405.962 376.619 500.479 269.805 543.596 144.394C550.55 124.539 556.219 103.314 553.454 82.0042C542.986 1.27436 464.039 43.3598 421.309 68.0803C363.359 101.484 313.989 134.656 244.081 135.914Z" fill="#C0DAF2"/>
</g>
<defs>
<clipPath id="clip0">
<rect width="600" height="600" fill="white"/>
</clipPath>
</defs>
</svg>
