<svg width="600" height="600" viewBox="0 0 600 600" fill="none" xmlns="http://www.w3.org/2000/svg">
<g clip-path="url(#clip0)">
<path opacity="0.08" d="M174.566 304.911C258.526 254.093 299.726 130.593 394.382 110.157C437.704 100.716 482.659 116.643 522.579 137.38C556.032 154.681 591.273 181.229 595.364 220.734C598.844 252.803 580.219 282.319 561.269 307.61C523.368 358.192 480.389 404.425 433.403 445.414C381.823 490.344 323.998 529.453 259.274 546.147C195.017 562.651 122.503 554.428 69.0726 512.257C31.485 482.423 -24.0233 395.567 10.3606 344.128C29.0393 315.966 57.5106 327.388 84.2906 328.031C115.66 328.634 146.887 321.611 174.566 304.911Z" fill="#423CE8"/>
<path opacity="0.05" d="M428.486 34.0371C470.183 27.5535 524.721 49.6585 550.664 85.282C558.374 96.125 563.978 109.778 561.503 123.291C558.64 139.027 543.826 152.764 531.517 161.808C486.739 194.554 449.464 144.521 391.496 200.09C370.903 219.858 334.77 263.065 309.157 251.852C260.69 231.166 284.217 145.281 310.08 106.613C338.188 64.6209 383.174 41.1946 428.486 34.0371Z" fill="#423CE8"/>
</g>
<defs>
<clipPath id="clip0">
<rect width="600" height="600" fill="white"/>
</clipPath>
</defs>
</svg>
