<svg width="556" height="639" viewBox="0 0 556 639" fill="none" xmlns="http://www.w3.org/2000/svg">
  <g opacity="0.2" clip-path="url(#clip0)">
    <path
      d="M474.34 435.744V523.166M278.137 95.8908L474.34 208.993V434.924L278.137 548.026L81.934 434.924V208.993L278.137 95.8908ZM474.34 434.924L278.137 321.822L81.934 434.924H474.34ZM198.121 48.6283V139.602L277.041 184.952L356.235 139.602V48.6283L277.041 3.2782L198.121 48.6283ZM198.121 50.2675L277.041 95.6177L356.235 50.2675H198.121ZM277.041 95.8908V185.225V95.8908ZM2.7403 162.823V253.797L81.66 299.147L160.58 253.797V162.823L81.66 117.473L2.7403 162.823ZM2.7403 164.736L81.66 210.086L160.58 164.736H2.7403ZM81.66 210.086V295.595V210.086ZM395.421 160.911V251.884L474.34 297.235L553.26 251.884V160.911L474.34 115.561L395.421 160.911ZM395.421 162.823L474.34 208.173L553.26 162.823H395.421ZM474.34 208.173V293.683V208.173ZM198.121 499.671V590.645L277.041 635.995L355.961 590.645V499.671L277.041 454.321L198.121 499.671ZM198.121 501.31L277.041 546.66L355.961 501.31H198.121ZM277.041 546.66V634.082V546.66ZM198.121 274.56V365.533L277.041 410.883L355.961 365.533V274.56L277.041 229.209L198.121 274.56ZM198.121 274.56L277.041 321.822L355.961 276.472L198.121 274.56ZM277.041 321.822V409.244V321.822ZM2.7403 386.569V477.542L81.66 522.893L160.58 477.542V386.569L81.66 341.219L2.7403 386.569ZM2.7403 388.208L81.66 433.558L160.58 388.208H2.7403ZM81.66 433.831V521.253V433.831ZM395.421 388.481V479.455L474.34 524.805L553.26 479.455V388.481L474.34 343.131L395.421 388.481ZM395.421 390.12L474.34 435.471L553.26 390.12H395.421Z"
      stroke="url(#paint0_linear)" stroke-width="3" stroke-miterlimit="10"/>
  </g>
  <defs>
    <linearGradient id="paint0_linear" x1="2.87707e-05" y1="319.531" x2="556.102" y2="319.531"
                    gradientUnits="userSpaceOnUse">
      <stop/>
      <stop offset="1" stop-color="#e3e3e7"/>
    </linearGradient>
    <clipPath id="clip0">
      <rect width="556" height="639" fill="#e3e3e7"/>
    </clipPath>
  </defs>
</svg>
