<svg width="462" height="218" viewBox="0 0 462 218" fill="none" xmlns="http://www.w3.org/2000/svg">
<path d="M0.15 17.9C0.15 14.4667 0.916667 11.4 2.45 8.7C4.01667 5.96666 6.13333 3.85 8.8 2.35C11.5 0.816665 14.5167 0.0499992 17.85 0.0499992C21.75 0.0499992 25.1667 1.05 28.1 3.05C31.0333 5.05 33.0833 7.81667 34.25 11.35H26.2C25.4 9.68333 24.2667 8.43333 22.8 7.6C21.3667 6.76666 19.7 6.35 17.8 6.35C15.7667 6.35 13.95 6.83333 12.35 7.8C10.7833 8.73333 9.55 10.0667 8.65 11.8C7.78333 13.5333 7.35 15.5667 7.35 17.9C7.35 20.2 7.78333 22.2333 8.65 24C9.55 25.7333 10.7833 27.0833 12.35 28.05C13.95 28.9833 15.7667 29.45 17.8 29.45C19.7 29.45 21.3667 29.0333 22.8 28.2C24.2667 27.3333 25.4 26.0667 26.2 24.4H34.25C33.0833 27.9667 31.0333 30.75 28.1 32.75C25.2 34.7167 21.7833 35.7 17.85 35.7C14.5167 35.7 11.5 34.95 8.8 33.45C6.13333 31.9167 4.01667 29.8 2.45 27.1C0.916667 24.4 0.15 21.3333 0.15 17.9Z" fill="#2A2D3C"/>
<path d="M65.7289 35.4L58.0289 21.8H54.7289V35.4H47.7289V0.499998H60.8289C63.5289 0.499998 65.8289 0.983333 67.7289 1.95C69.6289 2.88333 71.0456 4.16667 71.9789 5.8C72.9456 7.4 73.4289 9.2 73.4289 11.2C73.4289 13.5 72.7622 15.5833 71.4289 17.45C70.0956 19.2833 68.1122 20.55 65.4789 21.25L73.8289 35.4H65.7289ZM54.7289 16.55H60.5789C62.4789 16.55 63.8956 16.1 64.8289 15.2C65.7622 14.2667 66.2289 12.9833 66.2289 11.35C66.2289 9.75 65.7622 8.51667 64.8289 7.65C63.8956 6.75 62.4789 6.3 60.5789 6.3H54.7289V16.55Z" fill="#2A2D3C"/>
<path d="M115.01 0.499998L103.21 23.25V35.4H96.2102V23.25L84.3602 0.499998H92.2602L99.7602 16.45L107.21 0.499998H115.01Z" fill="#2A2D3C"/>
<path d="M151.997 11.3C151.997 13.1667 151.547 14.9167 150.647 16.55C149.781 18.1833 148.397 19.5 146.497 20.5C144.631 21.5 142.264 22 139.397 22H133.547V35.4H126.547V0.499998H139.397C142.097 0.499998 144.397 0.966666 146.297 1.9C148.197 2.83333 149.614 4.11666 150.547 5.75C151.514 7.38333 151.997 9.23333 151.997 11.3ZM139.097 16.35C141.031 16.35 142.464 15.9167 143.397 15.05C144.331 14.15 144.797 12.9 144.797 11.3C144.797 7.9 142.897 6.2 139.097 6.2H133.547V16.35H139.097Z" fill="#2A2D3C"/>
<path d="M188.217 0.499998V6.15H178.917V35.4H171.917V6.15H162.617V0.499998H188.217Z" fill="#2A2D3C"/>
<path d="M217.025 35.75C213.758 35.75 210.758 34.9833 208.025 33.45C205.291 31.9167 203.125 29.8 201.525 27.1C199.925 24.3667 199.125 21.2833 199.125 17.85C199.125 14.45 199.925 11.4 201.525 8.7C203.125 5.96666 205.291 3.83333 208.025 2.3C210.758 0.766666 213.758 0 217.025 0C220.325 0 223.325 0.766666 226.025 2.3C228.758 3.83333 230.908 5.96666 232.475 8.7C234.075 11.4 234.875 14.45 234.875 17.85C234.875 21.2833 234.075 24.3667 232.475 27.1C230.908 29.8 228.758 31.9167 226.025 33.45C223.291 34.9833 220.291 35.75 217.025 35.75ZM217.025 29.5C219.125 29.5 220.975 29.0333 222.575 28.1C224.175 27.1333 225.425 25.7667 226.325 24C227.225 22.2333 227.675 20.1833 227.675 17.85C227.675 15.5167 227.225 13.4833 226.325 11.75C225.425 9.98333 224.175 8.63333 222.575 7.7C220.975 6.76667 219.125 6.3 217.025 6.3C214.925 6.3 213.058 6.76667 211.425 7.7C209.825 8.63333 208.575 9.98333 207.675 11.75C206.775 13.4833 206.325 15.5167 206.325 17.85C206.325 20.1833 206.775 22.2333 207.675 24C208.575 25.7667 209.825 27.1333 211.425 28.1C213.058 29.0333 214.925 29.5 217.025 29.5Z" fill="#2A2D3C"/>
<path d="M268.982 28.75H255.082L252.782 35.4H245.432L257.982 0.449997H266.132L278.682 35.4H271.282L268.982 28.75ZM267.082 23.15L262.032 8.55L256.982 23.15H267.082Z" fill="#2A2D3C"/>
<path d="M302.923 35.75C300.49 35.75 298.29 35.3333 296.323 34.5C294.39 33.6667 292.857 32.4667 291.723 30.9C290.59 29.3333 290.007 27.4833 289.973 25.35H297.473C297.573 26.7833 298.073 27.9167 298.973 28.75C299.907 29.5833 301.173 30 302.773 30C304.407 30 305.69 29.6167 306.623 28.85C307.557 28.05 308.023 27.0167 308.023 25.75C308.023 24.7167 307.707 23.8667 307.073 23.2C306.44 22.5333 305.64 22.0167 304.673 21.65C303.74 21.25 302.44 20.8167 300.773 20.35C298.507 19.6833 296.657 19.0333 295.223 18.4C293.823 17.7333 292.607 16.75 291.573 15.45C290.573 14.1167 290.073 12.35 290.073 10.15C290.073 8.08333 290.59 6.28333 291.623 4.75C292.657 3.21666 294.107 2.05 295.973 1.25C297.84 0.416666 299.973 0 302.373 0C305.973 0 308.89 0.883332 311.123 2.65C313.39 4.38333 314.64 6.81666 314.873 9.95H307.173C307.107 8.75 306.59 7.76666 305.623 7C304.69 6.2 303.44 5.8 301.873 5.8C300.507 5.8 299.407 6.15 298.573 6.85C297.773 7.55 297.373 8.56667 297.373 9.9C297.373 10.8333 297.673 11.6167 298.273 12.25C298.907 12.85 299.673 13.35 300.573 13.75C301.507 14.1167 302.807 14.55 304.473 15.05C306.74 15.7167 308.59 16.3833 310.023 17.05C311.457 17.7167 312.69 18.7167 313.723 20.05C314.757 21.3833 315.273 23.1333 315.273 25.3C315.273 27.1667 314.79 28.9 313.823 30.5C312.857 32.1 311.44 33.3833 309.573 34.35C307.707 35.2833 305.49 35.75 302.923 35.75Z" fill="#2A2D3C"/>
<path d="M340.892 35.75C338.459 35.75 336.259 35.3333 334.292 34.5C332.359 33.6667 330.826 32.4667 329.692 30.9C328.559 29.3333 327.976 27.4833 327.942 25.35H335.442C335.542 26.7833 336.042 27.9167 336.942 28.75C337.876 29.5833 339.142 30 340.742 30C342.376 30 343.659 29.6167 344.592 28.85C345.526 28.05 345.992 27.0167 345.992 25.75C345.992 24.7167 345.676 23.8667 345.042 23.2C344.409 22.5333 343.609 22.0167 342.642 21.65C341.709 21.25 340.409 20.8167 338.742 20.35C336.476 19.6833 334.626 19.0333 333.192 18.4C331.792 17.7333 330.576 16.75 329.542 15.45C328.542 14.1167 328.042 12.35 328.042 10.15C328.042 8.08333 328.559 6.28333 329.592 4.75C330.626 3.21666 332.076 2.05 333.942 1.25C335.809 0.416666 337.942 0 340.342 0C343.942 0 346.859 0.883332 349.092 2.65C351.359 4.38333 352.609 6.81666 352.842 9.95H345.142C345.076 8.75 344.559 7.76666 343.592 7C342.659 6.2 341.409 5.8 339.842 5.8C338.476 5.8 337.376 6.15 336.542 6.85C335.742 7.55 335.342 8.56667 335.342 9.9C335.342 10.8333 335.642 11.6167 336.242 12.25C336.876 12.85 337.642 13.35 338.542 13.75C339.476 14.1167 340.776 14.55 342.442 15.05C344.709 15.7167 346.559 16.3833 347.992 17.05C349.426 17.7167 350.659 18.7167 351.692 20.05C352.726 21.3833 353.242 23.1333 353.242 25.3C353.242 27.1667 352.759 28.9 351.792 30.5C350.826 32.1 349.409 33.3833 347.542 34.35C345.676 35.2833 343.459 35.75 340.892 35.75Z" fill="#2A2D3C"/>
<path d="M373.811 6.15V14.9H385.561V20.45H373.811V29.7H387.061V35.4H366.811V0.449997H387.061V6.15H373.811Z" fill="#2A2D3C"/>
<path d="M424.672 0.499998V6.15H415.372V35.4H408.372V6.15H399.072V0.499998H424.672Z" fill="#2A2D3C"/>
<path d="M449.33 35.75C446.896 35.75 444.696 35.3333 442.73 34.5C440.796 33.6667 439.263 32.4667 438.13 30.9C436.996 29.3333 436.413 27.4833 436.38 25.35H443.88C443.98 26.7833 444.48 27.9167 445.38 28.75C446.313 29.5833 447.58 30 449.18 30C450.813 30 452.096 29.6167 453.03 28.85C453.963 28.05 454.43 27.0167 454.43 25.75C454.43 24.7167 454.113 23.8667 453.48 23.2C452.846 22.5333 452.046 22.0167 451.08 21.65C450.146 21.25 448.846 20.8167 447.18 20.35C444.913 19.6833 443.063 19.0333 441.63 18.4C440.23 17.7333 439.013 16.75 437.98 15.45C436.98 14.1167 436.48 12.35 436.48 10.15C436.48 8.08333 436.996 6.28333 438.03 4.75C439.063 3.21666 440.513 2.05 442.38 1.25C444.246 0.416666 446.38 0 448.78 0C452.38 0 455.296 0.883332 457.53 2.65C459.796 4.38333 461.046 6.81666 461.28 9.95H453.58C453.513 8.75 452.996 7.76666 452.03 7C451.096 6.2 449.846 5.8 448.28 5.8C446.913 5.8 445.813 6.15 444.98 6.85C444.18 7.55 443.78 8.56667 443.78 9.9C443.78 10.8333 444.08 11.6167 444.68 12.25C445.313 12.85 446.08 13.35 446.98 13.75C447.913 14.1167 449.213 14.55 450.88 15.05C453.146 15.7167 454.996 16.3833 456.43 17.05C457.863 17.7167 459.096 18.7167 460.13 20.05C461.163 21.3833 461.68 23.1333 461.68 25.3C461.68 27.1667 461.196 28.9 460.23 30.5C459.263 32.1 457.846 33.3833 455.98 34.35C454.113 35.2833 451.896 35.75 449.33 35.75Z" fill="#2A2D3C"/>
<path d="M26.15 102C25.35 100.533 24.25 99.4167 22.85 98.65C21.45 97.8833 19.8167 97.5 17.95 97.5C15.8833 97.5 14.05 97.9667 12.45 98.9C10.85 99.8333 9.6 101.167 8.7 102.9C7.8 104.633 7.35 106.633 7.35 108.9C7.35 111.233 7.8 113.267 8.7 115C9.63333 116.733 10.9167 118.067 12.55 119C14.1833 119.933 16.0833 120.4 18.25 120.4C20.9167 120.4 23.1 119.7 24.8 118.3C26.5 116.867 27.6167 114.883 28.15 112.35H16.15V107H35.05V113.1C34.5833 115.533 33.5833 117.783 32.05 119.85C30.5167 121.917 28.5333 123.583 26.1 124.85C23.7 126.083 21 126.7 18 126.7C14.6333 126.7 11.5833 125.95 8.85 124.45C6.15 122.917 4.01667 120.8 2.45 118.1C0.916667 115.4 0.15 112.333 0.15 108.9C0.15 105.467 0.916667 102.4 2.45 99.7C4.01667 96.9667 6.15 94.85 8.85 93.35C11.5833 91.8167 14.6167 91.05 17.95 91.05C21.8833 91.05 25.3 92.0167 28.2 93.95C31.1 95.85 33.1 98.5333 34.2 102H26.15Z" fill="#2A2D3C"/>
<path d="M63.9289 126.75C60.6622 126.75 57.6622 125.983 54.9289 124.45C52.1956 122.917 50.0289 120.8 48.4289 118.1C46.8289 115.367 46.0289 112.283 46.0289 108.85C46.0289 105.45 46.8289 102.4 48.4289 99.7C50.0289 96.9667 52.1956 94.8333 54.9289 93.3C57.6622 91.7667 60.6622 91 63.9289 91C67.2289 91 70.2289 91.7667 72.9289 93.3C75.6622 94.8333 77.8122 96.9667 79.3789 99.7C80.9789 102.4 81.7789 105.45 81.7789 108.85C81.7789 112.283 80.9789 115.367 79.3789 118.1C77.8122 120.8 75.6622 122.917 72.9289 124.45C70.1956 125.983 67.1956 126.75 63.9289 126.75ZM63.9289 120.5C66.0289 120.5 67.8789 120.033 69.4789 119.1C71.0789 118.133 72.3289 116.767 73.2289 115C74.1289 113.233 74.5789 111.183 74.5789 108.85C74.5789 106.517 74.1289 104.483 73.2289 102.75C72.3289 100.983 71.0789 99.6333 69.4789 98.7C67.8789 97.7667 66.0289 97.3 63.9289 97.3C61.8289 97.3 59.9622 97.7667 58.3289 98.7C56.7289 99.6333 55.4789 100.983 54.5789 102.75C53.6789 104.483 53.2289 106.517 53.2289 108.85C53.2289 111.183 53.6789 113.233 54.5789 115C55.4789 116.767 56.7289 118.133 58.3289 119.1C59.9622 120.033 61.8289 120.5 63.9289 120.5Z" fill="#2A2D3C"/>
<path d="M125.837 91.5L113.037 126.4H104.537L91.7367 91.5H99.2367L108.837 119.25L118.387 91.5H125.837Z" fill="#2A2D3C"/>
<path d="M144.534 97.15V105.9H156.284V111.45H144.534V120.7H157.784V126.4H137.534V91.45H157.784V97.15H144.534Z" fill="#2A2D3C"/>
<path d="M189.645 126.4L181.945 112.8H178.645V126.4H171.645V91.5H184.745C187.445 91.5 189.745 91.9833 191.645 92.95C193.545 93.8833 194.962 95.1667 195.895 96.8C196.862 98.4 197.345 100.2 197.345 102.2C197.345 104.5 196.678 106.583 195.345 108.45C194.012 110.283 192.028 111.55 189.395 112.25L197.745 126.4H189.645ZM178.645 107.55H184.495C186.395 107.55 187.812 107.1 188.745 106.2C189.678 105.267 190.145 103.983 190.145 102.35C190.145 100.75 189.678 99.5167 188.745 98.65C187.812 97.75 186.395 97.3 184.495 97.3H178.645V107.55Z" fill="#2A2D3C"/>
<path d="M241.026 126.4H234.026L218.176 102.45V126.4H211.176V91.45H218.176L234.026 115.45V91.45H241.026V126.4Z" fill="#2A2D3C"/>
<path d="M276.844 119.75H262.944L260.644 126.4H253.294L265.844 91.45H273.994L286.544 126.4H279.144L276.844 119.75ZM274.944 114.15L269.894 99.55L264.844 114.15H274.944Z" fill="#2A2D3C"/>
<path d="M328.585 126.4H321.585L305.735 102.45V126.4H298.735V91.45H305.735L321.585 115.45V91.45H328.585V126.4Z" fill="#2A2D3C"/>
<path d="M341.302 108.9C341.302 105.467 342.069 102.4 343.602 99.7C345.169 96.9667 347.286 94.85 349.952 93.35C352.652 91.8167 355.669 91.05 359.002 91.05C362.902 91.05 366.319 92.05 369.252 94.05C372.186 96.05 374.236 98.8167 375.402 102.35H367.352C366.552 100.683 365.419 99.4333 363.952 98.6C362.519 97.7667 360.852 97.35 358.952 97.35C356.919 97.35 355.102 97.8333 353.502 98.8C351.936 99.7333 350.702 101.067 349.802 102.8C348.936 104.533 348.502 106.567 348.502 108.9C348.502 111.2 348.936 113.233 349.802 115C350.702 116.733 351.936 118.083 353.502 119.05C355.102 119.983 356.919 120.45 358.952 120.45C360.852 120.45 362.519 120.033 363.952 119.2C365.419 118.333 366.552 117.067 367.352 115.4H375.402C374.236 118.967 372.186 121.75 369.252 123.75C366.352 125.717 362.936 126.7 359.002 126.7C355.669 126.7 352.652 125.95 349.952 124.45C347.286 122.917 345.169 120.8 343.602 118.1C342.069 115.4 341.302 112.333 341.302 108.9Z" fill="#2A2D3C"/>
<path d="M395.881 97.15V105.9H407.631V111.45H395.881V120.7H409.131V126.4H388.881V91.45H409.131V97.15H395.881Z" fill="#2A2D3C"/>
<path d="M25.6 182.5V188.15H16.3V217.4H9.3V188.15H0V182.5H25.6Z" fill="#2A2D3C"/>
<path d="M59.6074 210.75H45.7074L43.4074 217.4H36.0574L48.6074 182.45H56.7574L69.3074 217.4H61.9074L59.6074 210.75ZM57.7074 205.15L52.6574 190.55L47.6074 205.15H57.7074Z" fill="#2A2D3C"/>
<path d="M93.5484 217.75C91.1151 217.75 88.9151 217.333 86.9484 216.5C85.0151 215.667 83.4818 214.467 82.3484 212.9C81.2151 211.333 80.6318 209.483 80.5984 207.35H88.0984C88.1984 208.783 88.6984 209.917 89.5984 210.75C90.5318 211.583 91.7984 212 93.3984 212C95.0318 212 96.3151 211.617 97.2484 210.85C98.1818 210.05 98.6484 209.017 98.6484 207.75C98.6484 206.717 98.3318 205.867 97.6984 205.2C97.0651 204.533 96.2651 204.017 95.2984 203.65C94.3651 203.25 93.0651 202.817 91.3984 202.35C89.1318 201.683 87.2818 201.033 85.8484 200.4C84.4484 199.733 83.2318 198.75 82.1984 197.45C81.1984 196.117 80.6984 194.35 80.6984 192.15C80.6984 190.083 81.2151 188.283 82.2484 186.75C83.2818 185.217 84.7318 184.05 86.5984 183.25C88.4651 182.417 90.5984 182 92.9984 182C96.5984 182 99.5151 182.883 101.748 184.65C104.015 186.383 105.265 188.817 105.498 191.95H97.7984C97.7318 190.75 97.2151 189.767 96.2484 189C95.3151 188.2 94.0651 187.8 92.4984 187.8C91.1318 187.8 90.0318 188.15 89.1984 188.85C88.3984 189.55 87.9984 190.567 87.9984 191.9C87.9984 192.833 88.2984 193.617 88.8984 194.25C89.5318 194.85 90.2984 195.35 91.1984 195.75C92.1318 196.117 93.4318 196.55 95.0984 197.05C97.3651 197.717 99.2151 198.383 100.648 199.05C102.082 199.717 103.315 200.717 104.348 202.05C105.382 203.383 105.898 205.133 105.898 207.3C105.898 209.167 105.415 210.9 104.448 212.5C103.482 214.1 102.065 215.383 100.198 216.35C98.3318 217.283 96.1151 217.75 93.5484 217.75Z" fill="#2A2D3C"/>
<path d="M139.167 217.4L126.467 201.85V217.4H119.467V182.5H126.467V198.15L139.167 182.5H147.617L133.217 199.8L148.017 217.4H139.167Z" fill="#2A2D3C"/>
<path d="M201.086 182.5V188.15H186.536V197.1H197.686V202.65H186.536V217.4H179.536V182.5H201.086Z" fill="#2A2D3C"/>
<path d="M229.749 217.75C226.483 217.75 223.483 216.983 220.749 215.45C218.016 213.917 215.849 211.8 214.249 209.1C212.649 206.367 211.849 203.283 211.849 199.85C211.849 196.45 212.649 193.4 214.249 190.7C215.849 187.967 218.016 185.833 220.749 184.3C223.483 182.767 226.483 182 229.749 182C233.049 182 236.049 182.767 238.749 184.3C241.483 185.833 243.633 187.967 245.199 190.7C246.799 193.4 247.599 196.45 247.599 199.85C247.599 203.283 246.799 206.367 245.199 209.1C243.633 211.8 241.483 213.917 238.749 215.45C236.016 216.983 233.016 217.75 229.749 217.75ZM229.749 211.5C231.849 211.5 233.699 211.033 235.299 210.1C236.899 209.133 238.149 207.767 239.049 206C239.949 204.233 240.399 202.183 240.399 199.85C240.399 197.517 239.949 195.483 239.049 193.75C238.149 191.983 236.899 190.633 235.299 189.7C233.699 188.767 231.849 188.3 229.749 188.3C227.649 188.3 225.783 188.767 224.149 189.7C222.549 190.633 221.299 191.983 220.399 193.75C219.499 195.483 219.049 197.517 219.049 199.85C219.049 202.183 219.499 204.233 220.399 206C221.299 207.767 222.549 209.133 224.149 210.1C225.783 211.033 227.649 211.5 229.749 211.5Z" fill="#2A2D3C"/>
<path d="M278.307 217.4L270.607 203.8H267.307V217.4H260.307V182.5H273.407C276.107 182.5 278.407 182.983 280.307 183.95C282.207 184.883 283.624 186.167 284.557 187.8C285.524 189.4 286.007 191.2 286.007 193.2C286.007 195.5 285.34 197.583 284.007 199.45C282.674 201.283 280.69 202.55 278.057 203.25L286.407 217.4H278.307ZM267.307 198.55H273.157C275.057 198.55 276.474 198.1 277.407 197.2C278.34 196.267 278.807 194.983 278.807 193.35C278.807 191.75 278.34 190.517 277.407 189.65C276.474 188.75 275.057 188.3 273.157 188.3H267.307V198.55Z" fill="#2A2D3C"/>
<path d="M298.138 199.9C298.138 196.467 298.905 193.4 300.438 190.7C302.005 187.967 304.122 185.85 306.788 184.35C309.488 182.817 312.505 182.05 315.838 182.05C319.738 182.05 323.155 183.05 326.088 185.05C329.022 187.05 331.072 189.817 332.238 193.35H324.188C323.388 191.683 322.255 190.433 320.788 189.6C319.355 188.767 317.688 188.35 315.788 188.35C313.755 188.35 311.938 188.833 310.338 189.8C308.772 190.733 307.538 192.067 306.638 193.8C305.772 195.533 305.338 197.567 305.338 199.9C305.338 202.2 305.772 204.233 306.638 206C307.538 207.733 308.772 209.083 310.338 210.05C311.938 210.983 313.755 211.45 315.788 211.45C317.688 211.45 319.355 211.033 320.788 210.2C322.255 209.333 323.388 208.067 324.188 206.4H332.238C331.072 209.967 329.022 212.75 326.088 214.75C323.188 216.717 319.772 217.7 315.838 217.7C312.505 217.7 309.488 216.95 306.788 215.45C304.122 213.917 302.005 211.8 300.438 209.1C298.905 206.4 298.138 203.333 298.138 199.9Z" fill="#2A2D3C"/>
<path d="M352.717 188.15V196.9H364.467V202.45H352.717V211.7H365.967V217.4H345.717V182.45H365.967V188.15H352.717Z" fill="#2A2D3C"/>
</svg>
