<svg width="40" height="41" viewBox="0 0 40 41" fill="none" xmlns="http://www.w3.org/2000/svg">
<path d="M39.2443 35.9777L29.8126 26.5373C29.3476 26.072 28.6834 25.939 28.0856 26.1385L24.9639 23.0138C29.7461 16.9641 28.7498 8.12208 22.7056 3.33544C16.6613 -1.4512 7.89385 -0.453986 3.04517 5.66228C-1.80352 11.7785 -0.740793 20.4876 5.36988 25.2742C10.4842 29.3295 17.6576 29.3295 22.772 25.2742L25.8938 28.3988C25.6945 28.9971 25.8273 29.662 26.2923 30.1273L35.724 39.5676C36.7203 40.5649 38.3144 40.5649 39.3107 39.5676C40.2406 38.5704 40.2406 36.9749 39.2443 35.9777ZM1.45108 14.3713C1.45108 7.39078 7.09681 1.73989 14.0709 1.73989C21.0451 1.73989 26.6908 7.39078 26.6908 14.3713C26.6908 21.3518 21.0451 27.0027 14.0709 27.0027C7.09681 27.0027 1.45108 21.3518 1.45108 14.3713ZM23.7019 24.4099C23.8347 24.277 23.9676 24.144 24.1004 24.0111L27.0893 27.0027L26.6908 27.4016L23.7019 24.4099ZM37.4509 38.9693C37.1188 38.9693 36.7867 38.8363 36.5874 38.6369L27.1557 29.1966C27.0229 29.0636 27.0229 28.9307 27.1557 28.7977L27.6207 28.3323L28.0192 27.9334L28.4842 27.4681C28.617 27.3351 28.7498 27.3351 28.8827 27.4681L38.3144 36.9084C38.7793 37.3738 38.7793 38.1715 38.3144 38.6369C38.0487 38.8363 37.783 38.9693 37.4509 38.9693Z" fill="#2A2D3C"/>
<path d="M14.0709 2.40472C7.49531 2.40472 2.11526 7.78969 2.11526 14.3713C2.11526 20.953 7.49531 26.3379 14.0709 26.3379C20.6465 26.3379 26.0266 20.953 26.0266 14.3713C26.0266 7.78969 20.6465 2.40472 14.0709 2.40472ZM14.0709 25.0083C8.22594 25.0083 3.44367 20.2217 3.44367 14.3713C3.44367 8.52099 8.22594 3.73435 14.0709 3.73435C19.9159 3.73435 24.6982 8.52099 24.6982 14.3713C24.6982 20.2217 19.9159 25.0083 14.0709 25.0083Z" fill="#2A2D3C"/>
<path d="M35.3255 7.05837V30.3268H36.6539V7.05837C36.6539 5.1969 35.1926 3.73431 33.3328 3.73431H26.0266V5.06394H33.3328C34.462 5.06394 35.3255 5.92819 35.3255 7.05837Z" fill="#2A2D3C"/>
<path d="M4.7721 33.6508V27.0027H3.4437V33.6508C3.4437 35.5123 4.90494 36.9749 6.76471 36.9749H30.0118V35.6452H6.76471C5.63557 35.6452 4.7721 34.781 4.7721 33.6508Z" fill="#2A2D3C"/>
<path d="M33.9971 7.05835H28.6834V8.38797H33.9971V7.05835Z" fill="#2A2D3C"/>
<path d="M33.9971 10.3824H28.6834V11.7121H33.9971V10.3824Z" fill="#2A2D3C"/>
<path d="M33.9971 13.7065H28.6834V15.0362H33.9971V13.7065Z" fill="#2A2D3C"/>
<path d="M33.9971 17.0305H28.6834V18.3601H33.9971V17.0305Z" fill="#2A2D3C"/>
<path d="M33.997 20.3546H27.355V21.6842H33.997V20.3546Z" fill="#2A2D3C"/>
<path d="M33.997 23.6786H27.355V25.0083H33.997V23.6786Z" fill="#2A2D3C"/>
<path d="M33.997 27.0027H32.0044V28.3323H33.997V27.0027Z" fill="#2A2D3C"/>
<path d="M24.034 28.9971H6.10049V30.3268H24.034V28.9971Z" fill="#2A2D3C"/>
<path d="M26.6908 32.3212H6.10049V33.6508H26.6908V32.3212Z" fill="#2A2D3C"/>
<path d="M20.0488 20.3546H8.09311V21.6842H20.0488V20.3546Z" fill="#2A2D3C"/>
<path d="M20.0487 8H8.09308V9.32962H20.0487V8Z" fill="#2A2D3C"/>
<path d="M20.0487 14H8.09308V15.3296H20.0487V14Z" fill="#2A2D3C"/>
</svg>
